<svg width="14" height="14" viewBox="0 0 14 14" fill="none" xmlns="http://www.w3.org/2000/svg">
<path d="M1.81473 13.6666C1.40733 13.6666 1.05844 13.5217 0.768067 13.2318C0.47819 12.9415 0.333252 12.5926 0.333252 12.1852V1.81479C0.333252 1.40739 0.47819 1.0585 0.768067 0.768128C1.05844 0.478251 1.40733 0.333313 1.81473 0.333313H12.1851C12.5925 0.333313 12.9414 0.478251 13.2318 0.768128C13.5216 1.0585 13.6666 1.40739 13.6666 1.81479V12.1852C13.6666 12.5926 13.5216 12.9415 13.2318 13.2318C12.9414 13.5217 12.5925 13.6666 12.1851 13.6666H1.81473ZM5.96288 9.79628C6.06165 9.79628 6.15424 9.78097 6.24066 9.75035C6.32708 9.71924 6.40733 9.66665 6.4814 9.59257L10.6851 5.38887C10.8209 5.25307 10.8888 5.0864 10.8888 4.88887C10.8888 4.69134 10.8147 4.5185 10.6666 4.37035C10.5308 4.23455 10.3579 4.16665 10.1481 4.16665C9.93819 4.16665 9.76535 4.23455 9.62955 4.37035L5.96288 8.03702L4.35177 6.42591C4.21597 6.2901 4.0493 6.2222 3.85177 6.2222C3.65424 6.2222 3.4814 6.29628 3.33325 6.44442C3.19745 6.58023 3.12955 6.75307 3.12955 6.96294C3.12955 7.17282 3.19745 7.34566 3.33325 7.48146L5.44436 9.59257C5.51844 9.66665 5.59868 9.71924 5.6851 9.75035C5.77152 9.78097 5.86412 9.79628 5.96288 9.79628Z" fill="#029664"/>
</svg>
